<svg width="437" height="369" viewBox="0 0 437 369" fill="none" xmlns="http://www.w3.org/2000/svg">
<g clip-path="url(#clip0)">
<path d="M430.138 126.004C430.65 128.003 431.13 130.013 431.577 132.032H279.357V126.004H430.138Z" fill="#E6E6E6"/>
<path d="M425.286 110.113C422.836 103.193 419.978 96.4231 416.728 89.8399C415.729 87.8101 414.691 85.8006 413.614 83.8115C413.437 83.4702 413.248 83.1288 413.059 82.7875V127.65H426.213V112.783L425.286 110.113Z" fill="#E6E6E6"/>
<path d="M416.728 89.8399H413.059V83.8116H413.614C414.693 85.7987 415.731 87.8081 416.728 89.8399Z" fill="#CCCCCC"/>
<path d="M425.286 110.113H413.059V116.141H426.213V112.783L425.286 110.113Z" fill="#CCCCCC"/>
<path d="M405.936 75.5931H392.785V127.65H405.936V75.5931Z" fill="#E6E6E6"/>
<path d="M405.936 83.8127H392.785V89.8404H405.936V83.8127Z" fill="#CCCCCC"/>
<path d="M405.936 110.115H392.785V116.143H405.936V110.115Z" fill="#CCCCCC"/>
<path d="M345.961 75.2902H298.783C298.056 75.2913 297.359 75.5806 296.845 76.0948C296.33 76.6089 296.041 77.306 296.04 78.0331V125.211C296.041 125.48 296.08 125.747 296.156 126.004C296.327 126.568 296.674 127.061 297.147 127.413C297.62 127.764 298.194 127.954 298.783 127.954H345.961C346.55 127.954 347.124 127.764 347.597 127.413C348.07 127.061 348.417 126.568 348.588 126.004C348.664 125.747 348.703 125.48 348.704 125.211V78.0331C348.703 77.306 348.414 76.6089 347.899 76.0948C347.385 75.5806 346.688 75.2913 345.961 75.2902Z" fill="#E6E6E6"/>
<path d="M342.609 78.6427H302.135C301.408 78.6438 300.711 78.9331 300.197 79.4473C299.683 79.9615 299.394 80.6585 299.392 81.3856V121.859C299.394 122.586 299.683 123.283 300.197 123.797C300.711 124.312 301.408 124.601 302.135 124.602H342.609C343.336 124.601 344.033 124.312 344.547 123.797C345.061 123.283 345.35 122.586 345.352 121.859V81.3856C345.35 80.6585 345.061 79.9615 344.547 79.4473C344.033 78.9331 343.336 78.6438 342.609 78.6427Z" fill="white"/>
<path d="M335.55 85.7012H309.194C308.467 85.7023 307.77 85.9916 307.255 86.5058C306.741 87.0199 306.452 87.717 306.451 88.4441V114.801C306.452 115.528 306.741 116.225 307.255 116.739C307.77 117.253 308.467 117.542 309.194 117.544H335.55C336.277 117.54 336.972 117.25 337.486 116.736C337.999 116.222 338.29 115.527 338.293 114.801V88.4441C338.292 87.717 338.003 87.0199 337.489 86.5058C336.975 85.9916 336.277 85.7023 335.55 85.7012Z" fill="#CCCCCC"/>
<path d="M333.925 110.152L328.359 100.51C328.251 100.324 328.098 100.17 327.912 100.063C327.727 99.9563 327.517 99.9 327.303 99.9C327.089 99.9 326.878 99.9563 326.693 100.063C326.508 100.17 326.354 100.324 326.247 100.51L322.182 107.55L316.851 98.3175C316.744 98.1322 316.59 97.9783 316.405 97.8713C316.219 97.7643 316.009 97.708 315.795 97.708C315.581 97.708 315.371 97.7644 315.186 97.8713C315 97.9783 314.846 98.1322 314.739 98.3175L309.172 107.96L302.55 119.431H315.323L314.057 121.623H340.548L333.925 110.152Z" fill="white"/>
<path d="M331.96 95.32C334.079 95.32 335.796 93.6027 335.796 91.4842C335.796 89.3658 334.079 87.6484 331.96 87.6484C329.842 87.6484 328.125 89.3658 328.125 91.4842C328.125 93.6027 329.842 95.32 331.96 95.32Z" fill="white"/>
<path d="M435.96 168.598C435.917 166.233 435.823 163.881 435.679 161.54C435.618 160.418 435.545 159.303 435.454 158.188H409.719C408.992 158.189 408.295 158.478 407.781 158.992C407.266 159.506 406.977 160.203 406.976 160.93V208.109C406.975 208.324 407.001 208.54 407.055 208.749C407.199 209.347 407.54 209.88 408.023 210.261C408.506 210.642 409.103 210.85 409.719 210.852H433.442C433.564 210.157 433.68 209.45 433.783 208.749C433.85 208.334 433.918 207.914 433.979 207.499C434.125 206.506 434.265 205.512 434.393 204.518C434.576 203.165 434.74 201.806 434.887 200.441C435.423 195.546 435.768 190.599 435.923 185.598V185.592C435.978 183.709 436.006 181.817 436.008 179.918V172.603C436.008 171.262 435.996 169.927 435.96 168.598Z" fill="#E6E6E6"/>
<path d="M435.96 168.598C435.917 166.233 435.823 163.881 435.679 161.54H413.071C412.344 161.541 411.647 161.83 411.133 162.345C410.619 162.859 410.329 163.556 410.328 164.283V204.756C410.329 205.483 410.619 206.18 411.133 206.694C411.647 207.208 412.344 207.498 413.071 207.499H433.979C434.125 206.505 434.265 205.512 434.393 204.518C434.576 203.165 434.74 201.806 434.887 200.441C435.423 195.546 435.768 190.599 435.923 185.598V185.592C435.978 183.709 436.006 181.817 436.008 179.917V172.603C436.008 171.262 435.996 169.927 435.96 168.598Z" fill="white"/>
<path d="M435.96 168.599H420.13C419.403 168.6 418.706 168.889 418.191 169.403C417.677 169.917 417.388 170.614 417.387 171.342V197.698C417.388 198.425 417.677 199.122 418.191 199.636C418.706 200.15 419.403 200.44 420.13 200.441H434.887C435.423 195.546 435.768 190.599 435.923 185.599V185.593C435.978 183.709 436.006 181.817 436.008 179.918V172.603C436.008 171.262 435.996 169.927 435.96 168.599Z" fill="#CCCCCC"/>
<path d="M435.923 185.598C435.771 190.597 435.425 195.544 434.887 200.441C434.74 201.806 434.576 203.165 434.393 204.519H424.994L426.262 202.33H413.486L417.387 195.571L420.105 190.859L425.677 181.216C425.783 181.03 425.936 180.875 426.121 180.768C426.306 180.66 426.517 180.603 426.731 180.603C426.945 180.603 427.156 180.66 427.341 180.768C427.526 180.875 427.679 181.03 427.786 181.216L433.119 190.45L435.923 185.598Z" fill="white"/>
<path d="M389.738 49.2934H279.357V43.265H384.265C386.13 45.2338 387.954 47.2433 389.738 49.2934Z" fill="#E6E6E6"/>
<path d="M337.989 7.48511C342.487 9.95984 346.871 12.6113 351.142 15.4396V44.9047H337.989V7.48511Z" fill="#E6E6E6"/>
<path d="M351.139 27.3718H337.988V33.3995H351.139V27.3718Z" fill="#CCCCCC"/>
<path d="M371.416 30.9219V44.9047H358.262V20.3951C361.328 22.6322 364.325 24.9586 367.252 27.3744C368.654 28.5325 370.042 29.715 371.416 30.9219Z" fill="#E6E6E6"/>
<path d="M371.416 30.9219V33.3966H358.262V27.3744H367.252C368.654 28.5325 370.042 29.715 371.416 30.9219Z" fill="#CCCCCC"/>
<path d="M324.56 0.768025C328.041 2.3345 331.462 4.00464 334.825 5.77843L332.118 11.2399L323.128 29.4102L320.452 34.8108L316.265 43.2651L315.344 45.1242L311.595 43.2651L303.562 39.2848L308.664 28.9714H308.67L311.339 23.5709L320.336 5.40051L322.982 0.0609576L323.012 0L324.56 0.768025Z" fill="#E6E6E6"/>
<path d="M334.794 5.83329L332.119 11.2399L320.336 5.40052L322.982 0.0609539L323.012 0L324.56 0.768019L334.794 5.83329Z" fill="#CCCCCC"/>
<path d="M311.339 23.5725L308.665 28.9744L320.451 34.8094L323.125 29.4076L311.339 23.5725Z" fill="#CCCCCC"/>
<path d="M433.783 208.749C433.679 209.45 433.564 210.157 433.442 210.852C433.229 212.168 432.997 213.473 432.747 214.777H279.357V208.749H433.783Z" fill="#E6E6E6"/>
<path d="M351.139 158.336H337.988V210.394H351.139V158.336Z" fill="#E6E6E6"/>
<path d="M351.139 166.556H337.988V172.584H351.139V166.556Z" fill="#CCCCCC"/>
<path d="M351.139 192.859H337.988V198.886H351.139V192.859Z" fill="#CCCCCC"/>
<path d="M371.414 158.336H358.263V210.394H371.414V158.336Z" fill="#E6E6E6"/>
<path d="M371.414 166.556H358.263V172.584H371.414V166.556Z" fill="#CCCCCC"/>
<path d="M371.414 192.859H358.263V198.886H371.414V192.859Z" fill="#CCCCCC"/>
<path d="M326.657 158.121L303.56 204.774L315.345 210.609L338.443 163.956L326.657 158.121Z" fill="#E6E6E6"/>
<path d="M323.01 165.487L320.336 170.889L332.121 176.725L334.796 171.323L323.01 165.487Z" fill="#CCCCCC"/>
<path d="M311.339 189.059L308.665 194.461L320.451 200.296L323.125 194.894L311.339 189.059Z" fill="#CCCCCC"/>
<path d="M178.48 231.979C179.029 232.296 179.553 232.655 180.046 233.053L234.313 216.166L237.373 202.702L258.295 204.664L255.194 229.026C254.944 230.994 254.062 232.827 252.68 234.251C251.299 235.675 249.493 236.613 247.533 236.923L183.67 247.034C182.738 249.292 181.141 251.213 179.091 252.542C177.041 253.87 174.635 254.543 172.193 254.47C169.751 254.398 167.39 253.584 165.422 252.136C163.454 250.689 161.973 248.677 161.177 246.367C160.381 244.058 160.307 241.56 160.964 239.208C161.622 236.855 162.98 234.758 164.858 233.196C166.737 231.635 169.046 230.682 171.479 230.464C173.912 230.247 176.354 230.775 178.48 231.979Z" fill="#FFB8B8"/>
<path d="M267.965 212.741L267.605 206.597V206.591L267.507 204.909L266.447 186.818C266.764 183.046 265.574 179.302 263.137 176.406C260.701 173.51 257.216 171.698 253.445 171.366C252.361 171.268 251.269 171.297 250.191 171.451C246.988 171.904 244.032 173.425 241.803 175.769C239.573 178.112 238.201 181.14 237.908 184.361L235.708 193.516L231.862 209.529C231.589 210.649 231.702 211.829 232.182 212.877C232.662 213.925 233.481 214.782 234.507 215.307C235.1 215.619 235.748 215.81 236.415 215.868L242.827 216.441L249.002 216.99L256.127 217.624L256.64 217.666L257.956 217.788L262.363 218.178H262.375C263.111 218.238 263.852 218.14 264.547 217.892C265.243 217.644 265.878 217.251 266.41 216.74C266.798 216.362 267.125 215.926 267.379 215.448C267.824 214.618 268.027 213.68 267.965 212.741V212.741Z" fill="#10101F"/>
<path d="M327.514 138.239C327.514 159.101 308.224 155.945 284.429 155.945C260.633 155.945 241.343 159.101 241.343 138.239C241.343 117.377 250.766 80.3983 284.429 80.3983C319.251 80.3983 327.514 117.377 327.514 138.239Z" fill="#2F2E41"/>
<path d="M304.785 147.419C316.107 136.096 316.107 117.74 304.785 106.417C293.463 95.0952 275.106 95.0952 263.784 106.417C252.462 117.74 252.462 136.096 263.784 147.419C275.106 158.741 293.463 158.741 304.785 147.419Z" fill="#FFB8B8"/>
<path d="M325.097 168.099C324.538 167.561 323.946 167.06 323.323 166.599C319.381 163.621 314.428 162.31 309.529 162.948L256.103 169.708C251.209 170.315 246.744 172.805 243.655 176.648C240.566 180.492 239.095 185.388 239.554 190.298C239.706 192.005 239.877 193.803 240.066 195.674C240.31 198.021 240.584 200.483 240.901 203.031C241.425 207.316 242.065 211.839 242.827 216.441C243.492 220.403 244.248 224.42 245.113 228.388C245.363 229.534 245.623 230.676 245.893 231.814C245.893 231.817 245.893 231.82 245.894 231.823C245.895 231.827 245.897 231.829 245.899 231.832C245.93 231.972 245.96 232.112 245.997 232.246C245.995 232.257 245.997 232.268 246.003 232.277C246.381 233.862 246.777 235.428 247.192 236.976C247.35 237.549 247.502 238.116 247.661 238.677C248.088 240.201 248.539 241.694 249.002 243.163C252.482 254.092 257.084 263.4 263.162 268.349C263.241 268.422 263.32 268.483 263.405 268.55L263.649 268.739L264.003 268.63L265.502 268.185L266.782 267.795L283.459 262.778L287.61 261.529L300.947 257.512H300.953L313.15 253.842L314.637 253.391L325.115 250.24L325.45 246.327L325.901 241.133L326.17 238.013L328.291 213.399L329.528 199.039L330.869 183.447C331.118 180.619 330.729 177.772 329.73 175.116C328.731 172.459 327.147 170.061 325.097 168.099Z" fill="#2F2E41"/>
<path d="M354.97 287.196C354.83 286.788 354.696 286.38 354.556 285.977C348.29 267.691 339.049 253.861 325.45 246.327C325.444 246.327 325.444 246.321 325.438 246.321L325.206 246.193L313.357 250.295L311.894 250.801L310.37 251.331L310.352 251.337L299.258 255.177L299.24 255.183L290.536 258.194H290.53L282.478 260.98H282.472L280.6 261.632L266.526 266.502L264.892 267.069L263.43 267.575L263.204 267.655L263.161 268.349L262.156 285.977L262.089 287.196L260.833 309.195L219.135 368.265H247.661C257.219 368.267 266.764 367.54 276.212 366.089L302.976 337.246C303.201 337.013 303.484 336.847 303.796 336.764C304.108 336.681 304.437 336.685 304.747 336.775C305.057 336.866 305.336 337.039 305.555 337.277C305.774 337.514 305.923 337.807 305.988 338.123L309.919 357.629C329.288 350.78 347.407 340.81 363.558 328.115C361.681 312.968 358.938 299.162 354.97 287.196Z" fill="#2F2E41"/>
<path d="M250.787 124.074H262.254L267.313 109.909L268.324 124.074H273.805L276.756 115.811L277.346 124.074H318.071C318.071 120.043 317.277 116.053 315.734 112.329C314.192 108.605 311.931 105.222 309.081 102.372C306.232 99.5223 302.848 97.2616 299.125 95.7193C295.401 94.1769 291.41 93.3831 287.38 93.3831H281.478C273.338 93.3831 265.532 96.6166 259.776 102.372C254.02 108.128 250.787 115.934 250.787 124.074Z" fill="#2F2E41"/>
<path d="M180.254 277.68C178.382 278.466 176.36 278.833 174.331 278.753C172.302 278.674 170.315 278.151 168.51 277.221C166.705 276.29 165.126 274.975 163.884 273.369C162.642 271.762 161.768 269.903 161.322 267.922L112.275 262.367L128.716 242.679L172.772 250.972C176.149 250.444 179.604 251.174 182.479 253.022C185.355 254.871 187.453 257.71 188.376 261.002C189.298 264.295 188.98 267.811 187.484 270.884C185.987 273.958 183.415 276.376 180.254 277.68L180.254 277.68Z" fill="#A0616A"/>
<path d="M153.81 241.237L133.08 237.531L131.574 237.263C130.371 237.048 129.227 236.581 128.218 235.893C127.208 235.204 126.355 234.31 125.716 233.268C125.076 232.227 124.664 231.062 124.507 229.85C124.349 228.638 124.45 227.407 124.803 226.236L134.982 192.413L135.286 191.407C136.557 187.108 136.331 182.505 134.645 178.351C132.958 174.198 129.911 170.74 126.003 168.544C123.358 167.075 120.409 166.236 117.387 166.092C114.364 165.948 111.349 166.503 108.576 167.715C105.803 168.926 103.347 170.761 101.399 173.076C99.4506 175.391 98.0626 178.124 97.3427 181.064L84.3597 234.051L83.8782 236.013C82.9714 239.711 82.8725 243.56 83.5883 247.299C84.304 251.038 85.8177 254.579 88.0259 257.68C90.2341 260.781 93.0851 263.369 96.3844 265.268C99.6837 267.167 103.354 268.333 107.144 268.685C107.187 268.691 107.223 268.691 107.266 268.697L115.038 269.386L125.119 270.282L137.798 271.409L149.629 272.464C151.179 272.604 152.725 272.157 153.96 271.211C155.195 270.265 156.029 268.889 156.297 267.356C156.316 267.271 156.328 267.185 156.34 267.1L158.851 248.351L158.876 248.18C159.092 246.592 158.686 244.983 157.741 243.688C156.797 242.394 155.388 241.516 153.81 241.237Z" fill="#CCCCCC"/>
<path d="M121.872 99.1729C113.596 115.443 107.074 132.225 88.82 132.225C80.0542 132.225 71.6474 128.742 65.449 122.544C59.2506 116.346 55.7684 107.939 55.7684 99.1729C55.7684 80.919 70.5674 66.3497 88.82 66.1212C107.371 65.8889 137.275 68.8888 121.872 99.1729Z" fill="#2F2E41"/>
<path d="M142.632 312.023L141.882 304.538L141.321 304.568L42.7646 309.317L43.0206 316.893L43.4537 329.87C58.7037 341.487 75.6389 350.706 93.6733 357.208L94.3135 352.247C94.3694 351.842 94.5633 351.47 94.8625 351.192C95.1616 350.914 95.5475 350.748 95.9548 350.723C96.3622 350.697 96.7659 350.812 97.0977 351.05C97.4295 351.288 97.6689 351.633 97.7754 352.027L99.7198 359.275C115.43 364.341 131.744 367.295 148.233 368.058L142.632 312.023Z" fill="#2F2E41"/>
<path d="M110.947 124.377C122.269 113.055 122.269 94.6977 110.947 83.3755C99.625 72.0533 81.2681 72.0533 69.9459 83.3755C58.6238 94.6977 58.6238 113.055 69.9459 124.377C81.2681 135.699 99.625 135.699 110.947 124.377Z" fill="#A0616A"/>
<path d="M148.294 305.044L142.546 287.196L142.449 286.892L142.156 285.977L140.516 280.894C139.986 279.242 139.48 277.584 139.011 275.92C138.578 274.42 138.174 272.917 137.798 271.409C137.262 269.312 136.774 267.208 136.335 265.094C134.848 257.994 133.856 250.798 133.367 243.559C133.232 241.554 133.137 239.545 133.08 237.531C132.723 225.19 133.834 212.849 136.39 200.77C138.615 190.324 137.426 179.44 133 169.721C128.573 160.002 121.142 151.961 111.801 146.783C105.672 143.395 98.8877 141.361 91.9057 140.816C91.4242 140.779 90.9426 140.749 90.4551 140.718C83.0797 140.252 75.6938 141.448 68.8427 144.219C61.9916 146.989 55.8501 151.263 50.8717 156.725C48.2052 159.629 45.8893 162.837 43.9715 166.282C38.6505 175.869 36.653 186.948 38.2907 197.789L45.1418 243.791L43.5816 263.156L41.7408 285.977L41.6432 287.196L39.6804 311.529C39.5874 312.663 39.862 313.797 40.4636 314.763C41.0652 315.73 41.9617 316.476 43.0206 316.893C43.6408 317.142 44.3032 317.268 44.9713 317.265C45.0689 317.265 45.1603 317.265 45.2579 317.259L142.632 312.023L143.522 311.974C144.334 311.932 145.125 311.704 145.835 311.307C146.545 310.91 147.154 310.355 147.616 309.685C148.077 309.015 148.378 308.248 148.496 307.443C148.613 306.639 148.545 305.818 148.294 305.044L148.294 305.044Z" fill="#CCCCCC"/>
<path d="M121.212 87.4911C114.587 92.0574 106.723 94.4876 98.6769 94.4554C101.547 96.4456 104.815 97.7899 108.254 98.3957C97.5563 100.69 86.4997 100.753 75.7765 98.5782C73.3929 98.196 71.0929 97.406 68.9775 96.243C66.9186 94.9932 65.1962 93.003 64.7809 90.6305C64.0683 86.5598 67.2403 82.8615 70.5366 80.369C75.5835 76.6111 81.4027 74.022 87.573 72.789C93.7433 71.556 100.111 71.71 106.214 73.2397C110.2 74.2699 114.192 76.0105 116.781 79.211C119.369 82.4116 120.136 87.3458 117.67 90.6416L121.212 87.4911Z" fill="#2F2E41"/>
<path d="M122.694 271.649C120.839 272.476 118.826 272.886 116.796 272.85C114.765 272.815 112.768 272.335 110.943 271.444C109.118 270.553 107.511 269.273 106.235 267.693C104.958 266.114 104.044 264.274 103.555 262.303L54.3998 257.811L70.4108 237.772L114.635 245.109C118.001 244.508 121.47 245.163 124.385 246.949C127.3 248.735 129.459 251.528 130.453 254.799C131.446 258.071 131.205 261.593 129.775 264.698C128.345 267.804 125.826 270.277 122.694 271.649L122.694 271.649Z" fill="#A0616A"/>
<path d="M95.4716 235.788L84.3597 234.051L73.1502 232.295C71.943 232.107 70.7893 231.665 69.765 230.999C68.7406 230.333 67.8688 229.457 67.2068 228.43C66.5448 227.403 66.1075 226.248 65.9238 225.04C65.74 223.832 65.8139 222.599 66.1405 221.421L75.8688 186.373C77.046 182.047 76.7198 177.45 74.9436 173.334C73.1675 169.218 70.0465 165.827 66.0918 163.716C63.4202 162.291 60.4533 161.507 57.4264 161.428C54.3994 161.349 51.3956 161.976 48.653 163.259C45.902 164.522 43.4818 166.407 41.5831 168.764C39.6845 171.122 38.3592 173.888 37.7116 176.846L25.4417 232.076C24.6151 235.802 24.6032 239.662 25.4067 243.392C26.2102 247.123 27.8101 250.636 30.097 253.691C32.3839 256.746 35.3038 259.271 38.657 261.093C42.0101 262.915 45.7172 263.991 49.5247 264.247L91.9668 267.094C93.5187 267.2 95.0538 266.719 96.2683 265.748C97.4828 264.776 98.2883 263.383 98.5252 261.846C98.5437 261.761 98.5496 261.675 98.5618 261.59L100.665 242.792L100.683 242.621C100.864 241.03 100.423 239.43 99.4518 238.156C98.4804 236.883 97.0543 236.034 95.4716 235.788Z" fill="#CCCCCC"/>
<path d="M283.5 206.652L280.956 208.04L249.619 225.138L247.075 226.526C245.841 227.201 244.925 228.338 244.528 229.688C244.132 231.038 244.286 232.49 244.959 233.725L268.295 276.495C268.97 277.73 270.108 278.646 271.457 279.042C272.807 279.439 274.259 279.284 275.495 278.612L275.501 278.608L311.913 258.742L311.919 258.738C313.154 258.063 314.069 256.926 314.466 255.576C314.863 254.226 314.708 252.774 314.036 251.538L290.7 208.768C290.024 207.534 288.887 206.618 287.537 206.221C286.188 205.825 284.736 205.979 283.5 206.652Z" fill="#E6E6E6"/>
<path d="M284.232 207.993L281.219 209.636L250.82 226.223L247.807 227.867C246.928 228.347 246.276 229.157 245.993 230.118C245.711 231.08 245.821 232.114 246.3 232.994L269.636 275.764C270.117 276.643 270.927 277.295 271.888 277.578C272.849 277.86 273.883 277.75 274.763 277.271L274.77 277.267L311.181 257.401L311.188 257.397C312.067 256.916 312.719 256.106 313.002 255.145C313.284 254.184 313.174 253.15 312.695 252.27L289.359 209.5C288.878 208.621 288.068 207.969 287.107 207.686C286.146 207.403 285.112 207.514 284.232 207.993Z" fill="white"/>
<path d="M285.087 220.068C284.974 219.863 284.784 219.71 284.559 219.644C284.334 219.578 284.092 219.603 283.886 219.714L282.673 220.379L270.305 227.126C270.101 227.24 269.949 227.429 269.884 227.654C269.818 227.878 269.844 228.119 269.956 228.325C270.068 228.53 270.257 228.683 270.481 228.749C270.705 228.816 270.946 228.792 271.152 228.681L284.733 221.269C284.938 221.155 285.091 220.966 285.157 220.741C285.223 220.516 285.198 220.274 285.087 220.068Z" fill="#E6E6E6"/>
<path d="M289.713 220.94C289.658 220.838 289.583 220.748 289.493 220.675C289.403 220.603 289.299 220.549 289.188 220.516C289.077 220.484 288.961 220.474 288.846 220.487C288.731 220.5 288.619 220.536 288.518 220.592L271.738 229.747C271.636 229.803 271.546 229.878 271.474 229.968C271.401 230.059 271.347 230.162 271.314 230.274C271.282 230.385 271.272 230.501 271.284 230.617C271.297 230.732 271.332 230.843 271.387 230.945C271.443 231.047 271.518 231.136 271.608 231.209C271.699 231.282 271.802 231.336 271.914 231.368C272.025 231.401 272.141 231.411 272.257 231.399C272.372 231.386 272.483 231.351 272.585 231.296L273.365 230.869L278.248 228.205H278.254L289.359 222.14C289.462 222.085 289.553 222.011 289.627 221.92C289.7 221.83 289.755 221.726 289.788 221.614C289.821 221.502 289.831 221.385 289.818 221.269C289.806 221.153 289.77 221.041 289.713 220.94Z" fill="#E6E6E6"/>
<path d="M271.476 235.532L266.148 225.761C266.093 225.663 266.001 225.591 265.892 225.56C265.784 225.529 265.668 225.542 265.569 225.596L262.985 227.005L261.644 227.736L254.445 231.661L253.049 232.423C252.951 232.479 252.879 232.571 252.848 232.679C252.817 232.787 252.831 232.904 252.885 233.002L253.226 233.63L258.212 242.773C258.266 242.871 258.357 242.943 258.464 242.974C258.572 243.005 258.687 242.992 258.785 242.938L267.379 238.25L268.72 237.519L271.305 236.111C271.354 236.084 271.398 236.048 271.433 236.005C271.469 235.961 271.495 235.911 271.511 235.857C271.527 235.803 271.532 235.747 271.526 235.691C271.52 235.635 271.503 235.581 271.476 235.532Z" fill="#E6E6E6"/>
<path d="M291.822 232.466C291.71 232.261 291.521 232.108 291.298 232.042C291.074 231.976 290.833 232.001 290.627 232.112L272.207 242.164C272.044 242.253 271.914 242.391 271.834 242.558C271.754 242.725 271.729 242.914 271.762 243.096C271.775 243.191 271.806 243.282 271.854 243.364C271.9 243.449 271.96 243.525 272.03 243.59L272.036 243.596C272.173 243.719 272.344 243.796 272.526 243.818C272.708 243.84 272.893 243.805 273.054 243.718L291.475 233.667C291.576 233.611 291.666 233.535 291.739 233.445C291.811 233.354 291.865 233.25 291.898 233.138C291.93 233.027 291.94 232.91 291.927 232.795C291.914 232.679 291.878 232.567 291.822 232.466Z" fill="#E6E6E6"/>
<path d="M296.455 233.337C296.399 233.236 296.323 233.146 296.232 233.074C296.142 233.001 296.038 232.947 295.926 232.915C295.815 232.883 295.698 232.873 295.582 232.886C295.467 232.898 295.355 232.934 295.254 232.99L273.633 244.785C273.471 244.871 273.34 245.006 273.26 245.172C273.18 245.337 273.155 245.524 273.188 245.705V245.711C273.201 245.806 273.232 245.897 273.28 245.979C273.327 246.067 273.389 246.145 273.463 246.211C273.598 246.336 273.769 246.416 273.952 246.437C274.135 246.459 274.32 246.423 274.48 246.333L296.101 234.538C296.307 234.425 296.459 234.236 296.525 234.011C296.592 233.786 296.566 233.544 296.455 233.337Z" fill="#E6E6E6"/>
<path d="M266.037 251.948C268.108 251.948 269.786 250.269 269.786 248.199C269.786 246.128 268.108 244.449 266.037 244.449C263.967 244.449 262.288 246.128 262.288 248.199C262.288 250.269 263.967 251.948 266.037 251.948Z" fill="#E6E6E6"/>
<path d="M294.472 190.194L291.928 191.582L260.591 208.68L258.047 210.068C256.813 210.743 255.897 211.881 255.5 213.23C255.103 214.58 255.258 216.032 255.931 217.268L279.267 260.038C279.942 261.272 281.079 262.188 282.429 262.585C283.779 262.982 285.231 262.827 286.466 262.154L286.473 262.151L322.884 242.284L322.891 242.28C324.125 241.605 325.041 240.468 325.438 239.118C325.835 237.769 325.68 236.316 325.007 235.081L301.671 192.311C300.996 191.077 299.859 190.161 298.509 189.764C297.159 189.367 295.707 189.522 294.472 190.194Z" fill="#CCCCCC"/>
<path d="M295.203 191.535L292.191 193.179L261.791 209.765L258.779 211.409C257.9 211.89 257.248 212.7 256.965 213.661C256.682 214.622 256.793 215.656 257.272 216.536L280.608 259.306C281.089 260.185 281.898 260.837 282.86 261.12C283.821 261.403 284.855 261.292 285.735 260.813L285.741 260.81L322.153 240.943L322.159 240.939C323.038 240.459 323.69 239.649 323.973 238.688C324.256 237.726 324.145 236.692 323.667 235.812L300.33 193.042C299.849 192.163 299.04 191.511 298.078 191.229C297.117 190.946 296.083 191.056 295.203 191.535Z" fill="white"/>
<path d="M296.058 203.61C295.945 203.405 295.755 203.253 295.531 203.187C295.306 203.12 295.064 203.146 294.857 203.257L288.604 206.67L286.86 207.621L281.277 210.669C281.072 210.782 280.921 210.971 280.855 211.196C280.79 211.42 280.816 211.662 280.928 211.867C281.04 212.072 281.228 212.225 281.453 212.292C281.677 212.358 281.918 212.334 282.124 212.223L288.707 208.633L290.085 207.877L295.705 204.811C295.91 204.698 296.062 204.508 296.128 204.283C296.195 204.059 296.169 203.817 296.058 203.61Z" fill="#CCCCCC"/>
<path d="M300.685 204.482C300.629 204.38 300.555 204.291 300.465 204.218C300.374 204.145 300.271 204.091 300.16 204.059C300.049 204.027 299.932 204.017 299.817 204.03C299.702 204.043 299.591 204.078 299.49 204.135L290.767 208.895L289.426 209.627L282.709 213.29C282.608 213.346 282.518 213.421 282.445 213.511C282.373 213.601 282.318 213.705 282.286 213.816C282.253 213.927 282.243 214.044 282.256 214.159C282.268 214.274 282.303 214.386 282.359 214.488C282.414 214.589 282.49 214.679 282.58 214.752C282.67 214.824 282.774 214.878 282.885 214.911C282.996 214.944 283.113 214.954 283.228 214.941C283.343 214.929 283.455 214.894 283.557 214.838L290.274 211.175L291.615 210.443L300.331 205.683C300.434 205.628 300.525 205.553 300.598 205.463C300.672 205.372 300.727 205.268 300.76 205.157C300.793 205.045 300.803 204.928 300.79 204.812C300.777 204.696 300.741 204.584 300.685 204.482Z" fill="#CCCCCC"/>
<path d="M282.447 219.074L278.199 211.285L277.467 209.944L277.12 209.304C277.064 209.205 276.973 209.133 276.864 209.102C276.756 209.071 276.64 209.085 276.541 209.139L267.916 213.845L264.021 215.966C263.923 216.021 263.85 216.113 263.82 216.221C263.789 216.33 263.802 216.446 263.856 216.545L264.204 217.179L264.582 217.88L264.935 218.52V218.526L269.184 226.316C269.238 226.413 269.329 226.485 269.436 226.516C269.543 226.547 269.659 226.534 269.756 226.48L282.276 219.653C282.326 219.627 282.37 219.591 282.405 219.547C282.44 219.504 282.467 219.453 282.483 219.4C282.499 219.346 282.504 219.289 282.498 219.233C282.491 219.178 282.474 219.124 282.447 219.074Z" fill="#10101F"/>
<path d="M302.794 216.008C302.682 215.803 302.493 215.651 302.269 215.585C302.045 215.518 301.804 215.544 301.599 215.655L296.095 218.66L294.754 219.391L289.439 222.287L283.179 225.706C283.076 225.762 282.986 225.837 282.913 225.927C282.84 226.018 282.786 226.122 282.753 226.233C282.72 226.345 282.71 226.462 282.722 226.577C282.734 226.693 282.769 226.805 282.825 226.907C282.881 227.009 282.956 227.099 283.046 227.172C283.137 227.245 283.241 227.3 283.352 227.332C283.464 227.365 283.581 227.376 283.696 227.364C283.812 227.351 283.924 227.316 284.026 227.261L295.601 220.946L296.942 220.214L302.446 217.209C302.548 217.153 302.638 217.078 302.71 216.987C302.783 216.897 302.837 216.792 302.869 216.681C302.902 216.569 302.912 216.452 302.899 216.337C302.886 216.222 302.85 216.11 302.794 216.008Z" fill="#CCCCCC"/>
<path d="M307.426 216.88C307.37 216.778 307.295 216.689 307.204 216.616C307.113 216.544 307.009 216.49 306.898 216.457C306.786 216.425 306.669 216.415 306.554 216.428C306.439 216.441 306.327 216.476 306.225 216.533L297.527 221.281L296.186 222.012L284.605 228.327C284.503 228.383 284.413 228.457 284.34 228.548C284.266 228.638 284.212 228.742 284.179 228.853C284.146 228.965 284.135 229.082 284.148 229.197C284.16 229.313 284.195 229.425 284.251 229.527C284.307 229.629 284.382 229.719 284.473 229.791C284.564 229.864 284.668 229.918 284.779 229.951C284.891 229.983 285.008 229.993 285.123 229.98C285.239 229.967 285.351 229.932 285.452 229.875L297.028 223.561L298.369 222.829L307.073 218.081C307.278 217.968 307.431 217.778 307.497 217.553C307.563 217.328 307.538 217.086 307.426 216.88Z" fill="#CCCCCC"/>
<path d="M277.009 235.49C279.079 235.49 280.758 233.811 280.758 231.741C280.758 229.67 279.079 227.992 277.009 227.992C274.939 227.992 273.26 229.67 273.26 231.741C273.26 233.811 274.939 235.49 277.009 235.49Z" fill="#CCCCCC"/>
<path d="M279.527 252.817C280.158 252.88 280.784 252.991 281.397 253.152L323.912 215.436L321.163 201.906L341.041 195.088L348.236 218.568C348.817 220.465 348.767 222.499 348.094 224.365C347.42 226.231 346.16 227.829 344.502 228.917L290.451 264.404C290.531 266.846 289.865 269.254 288.543 271.308C287.221 273.362 285.305 274.965 283.049 275.903C280.794 276.842 278.306 277.071 275.917 276.561C273.528 276.051 271.351 274.826 269.675 273.049C267.999 271.271 266.904 269.026 266.536 266.611C266.168 264.196 266.543 261.726 267.613 259.53C268.682 257.334 270.395 255.515 272.523 254.316C274.652 253.117 277.095 252.594 279.527 252.817Z" fill="#FFB8B8"/>
<path d="M353.178 198.466L341.133 175.462C339.894 171.963 337.343 169.083 334.02 167.429C330.697 165.776 326.861 165.478 323.323 166.599C323.189 166.636 323.061 166.679 322.927 166.727C319.341 167.981 316.399 170.606 314.746 174.026C313.094 177.446 312.866 181.383 314.113 184.971L318.946 210.395C319.085 211.122 319.379 211.812 319.808 212.416C320.237 213.019 320.791 213.523 321.433 213.893C322.135 214.304 322.925 214.538 323.737 214.576C324.405 214.618 325.075 214.525 325.706 214.302L328.291 213.4L344.882 207.621L350.307 205.732C351.007 205.487 351.646 205.094 352.18 204.581C352.714 204.067 353.132 203.445 353.404 202.755C353.677 202.066 353.798 201.326 353.759 200.586C353.72 199.846 353.522 199.123 353.178 198.466Z" fill="#10101F"/>
<path d="M398.646 287.196H0.617595C0.455935 287.196 0.300896 287.132 0.186586 287.018C0.0722752 286.904 0.00805664 286.749 0.00805664 286.587C0.00805664 286.425 0.0722752 286.27 0.186586 286.156C0.300896 286.041 0.455935 285.977 0.617595 285.977H398.646C398.808 285.977 398.963 286.041 399.077 286.156C399.191 286.27 399.255 286.425 399.255 286.587C399.255 286.749 399.191 286.904 399.077 287.018C398.963 287.132 398.808 287.196 398.646 287.196Z" fill="#3F3D56"/>
<path d="M69.1882 275.92V276.224C69.1903 278.291 69.7922 280.313 70.9207 282.044C72.0492 283.775 73.6559 285.142 75.5458 285.977C76.9015 286.583 78.3702 286.895 79.8552 286.892H178.296V275.92H69.1882Z" fill="#3F3D56"/>
<path d="M247.027 203.61C245.465 200.386 243.06 197.643 240.066 195.674C238.709 194.776 237.245 194.051 235.708 193.516C233.613 192.785 231.411 192.412 229.192 192.413H134.714C129.462 192.419 124.426 194.508 120.712 198.222C116.999 201.936 114.91 206.971 114.904 212.223V267.081C114.902 267.851 114.947 268.621 115.038 269.385C115.172 270.529 115.404 271.659 115.732 272.762C116.058 273.849 116.478 274.906 116.988 275.92C118.629 279.217 121.157 281.99 124.289 283.929C127.42 285.867 131.031 286.893 134.714 286.891H229.192C231.794 286.892 234.37 286.381 236.774 285.385C239.178 284.39 241.362 282.931 243.202 281.091C245.042 279.252 246.501 277.067 247.496 274.663C248.491 272.26 249.003 269.683 249.002 267.081V212.223C249.006 209.239 248.331 206.294 247.027 203.61Z" fill="#3F3D56"/>
<path d="M187.134 244.529C189.827 244.529 192.01 242.345 192.01 239.652C192.01 236.959 189.827 234.776 187.134 234.776C184.441 234.776 182.257 236.959 182.257 239.652C182.257 242.345 184.441 244.529 187.134 244.529Z" fill="white"/>
</g>
<defs>
<clipPath id="clip0">
<rect width="436" height="368.265" fill="white" transform="translate(0.00805664)"/>
</clipPath>
</defs>
</svg>
